<?xml version="1.0" encoding="UTF-8"?>
<svg preserveAspectRatio="xMidYMid slice" xmlns="http://www.w3.org/2000/svg" xmlns:xlink="http://www.w3.org/1999/xlink" width="800px" height="800px" viewBox="0 0 145 145" version="1.1">
  <title>jf-0040-icons-person-headset-165x165-1</title>
  <g id="Contact_V2" stroke="none" stroke-width="1" fill="none" fill-rule="evenodd">
    <g id="Contact_Location" transform="translate(-150.000000, -139.000000)" fill-rule="nonzero">
      <g id="jf-0040-icons-person-headset-165x165-1" transform="translate(150.000000, 139.000000)">
        <path d="M145,72.5098703 C145.003563,43.1851827 127.34107,16.7461768 100.249273,5.52245837 C73.157476,-5.70126004 41.9722528,0.500881595 21.2365672,21.2365672 C0.500881595,41.9722528 -5.70126004,73.157476 5.52245837,100.249273 C16.7461768,127.34107 43.1851827,145.003563 72.5098703,145 C112.543048,144.995134 144.995134,112.543048 145,72.5098703" id="Path" fill="#D01778"></path>
        <polygon id="Path" fill="#F2DE7C" points="101.586985 119.288781 43.4327551 119.288781 43.4327551 50.5874877 72.5098703 30.7181257 101.586985 50.5874877"></polygon>
        <path d="M72.4217578,97.4280768 C49.8649655,97.4280768 31.7754753,103.886721 29.6431536,111.834466 C28.3783465,117.388423 27.3931838,123.00238 26.6913858,128.655136 C53.3742448,150.43571 91.6983632,150.43571 118.381222,128.655136 C117.44723,122.143625 116.372258,115.385398 115.429454,111.852088 C113.244265,103.921966 94.9521164,97.4456993 72.4217578,97.4456993" id="Path" fill="#06375C"></path>
        <path d="M91.2073364,99.0052901 L87.5594802,96.6438759 L72.5098703,92.1677624 L57.4602604,96.6438759 L53.8124041,98.9788563 C55.0019225,98.7761976 57.4602604,104.124625 57.4602604,104.124625 L87.5594802,104.124625 C87.5594802,104.124625 90.0090069,98.8378764 91.2073364,99.0052901" id="Path" fill="#BABABA"></path>
        <path d="M72.4217578,97.4280768 C68.7516534,97.4411725 65.0845116,97.6382042 61.4341328,98.0184304 C61.4341328,98.0184304 55.1252799,115.024137 72.5098703,115.024137 C89.8944606,115.024137 83.5856078,97.9831854 83.5856078,97.9831854 C80.061109,97.6395468 76.281084,97.4280768 72.4217578,97.4280768" id="Path" fill="#E2A379"></path>
        <path d="M83.8763789,82.4401457 L61.1433616,82.4401457 C64.6678604,93.1369995 61.4341328,98.0096191 61.4341328,98.0096191 C61.4341328,98.0096191 66.3419974,106.221701 72.4217578,106.221701 C78.5015183,106.221701 83.5856078,98.0096191 83.5856078,98.0096191 C83.5856078,98.0096191 80.3430689,93.1369995 83.8763789,82.4401457" id="Path" fill="#E2A379"></path>
        <path d="M95.8596749,51.204275 C95.8596749,24.2066142 85.4271584,18.0123075 72.5451153,18.0123075 C59.6630721,18.0123075 49.1600657,24.2066142 49.1600657,51.204275 C49.1600657,60.3503494 50.7901464,67.505082 53.2484843,73.0297339 C58.623345,85.1892547 67.9456443,89.4274646 72.4746253,89.4274646 C77.0036063,89.4274646 86.2906606,85.1892547 91.7007663,73.0297339 C94.1943492,67.505082 95.8596749,60.3503494 95.8596749,51.204275" id="Path" fill="#F4B382"></path>
        <path d="M101.498873,51.204275 C101.498873,24.2066142 88.5199061,18.0123075 72.5098703,18.0123075 C56.4998345,18.0123075 43.5208676,24.1801804 43.5208676,51.204275 L59.0727186,51.204275 L60.834968,45.3359845 L62.297635,51.204275 L101.498873,51.204275 Z" id="Path" fill="#F2DE7C"></path>
        <path d="M80.3078239,77.0917187 C80.3078239,77.0917187 76.1665378,79.8936953 72.5098703,79.8936953 C68.8532028,79.8936953 64.7119167,77.0917187 64.7119167,77.0917187 C64.7119167,76.6864014 68.0073231,75.5409393 69.4083113,75.3294693 C70.289436,75.1884894 72.5098703,76.0608028 72.5098703,76.0608028 C73.4940158,75.6610378 74.534507,75.4172656 75.5938067,75.3382806 C77.2314784,75.7755221 78.8244906,76.3655267 80.3518801,77.10053" id="Path" fill="#D6876B"></path>
        <path d="M80.3078239,77.0917187 C80.3078239,77.0917187 76.1665378,81.0744024 72.5098703,81.0744024 C68.8532028,81.0744024 64.7119167,77.1269637 64.7119167,77.1269637 C66.6011645,77.442858 68.5235458,77.5109856 70.430416,77.3296224 C71.073637,77.3296224 71.928328,77.7966185 72.4834365,77.7966185 C73.0385451,77.7966185 73.7081999,77.2767549 74.2456859,77.3031887 C76.2604807,77.4811059 78.2891942,77.4219598 80.2902014,77.1269637" id="Path" fill="#CC785E"></path>
        <path d="M51.0897288,53.5128217 C50.9871793,52.8276773 50.9488307,52.1344538 50.9751826,51.4421787 C50.9835602,50.9808519 51.0307197,50.5210468 51.1161625,50.0676241 L48.3758647,51.1161625 L48.3758647,52.3673596 L49.1953107,52.1030222 C49.1953107,52.1030222 49.133632,52.1030222 49.1071982,52.1030222 C49.6513847,53.0761394 50.091443,54.1039265 50.420074,55.1693362 C50.420074,55.1693362 51.4686124,55.9623484 51.0897288,53.5040105" id="Path" fill="#F2DE7C"></path>
        <path d="M94.0974255,51.4421787 C94.1285814,52.1344869 94.0902072,52.8281744 93.9828793,53.5128217 C93.6039956,55.9623484 94.652534,55.1781474 94.652534,55.1781474 C94.967782,54.112023 95.399183,53.0837521 95.9389761,52.1118335 C96.176828,52.2059667 96.421261,52.282536 96.6703096,52.3409259 L96.6703096,51.1161625 L93.9564455,50.0940579 C94.0418883,50.5474805 94.0890478,51.0072856 94.0974255,51.4686124" id="Path" fill="#F2DE7C"></path>
        <path d="M78.4398395,82.1493745 C78.4486021,82.2843382 78.4486021,82.4197282 78.4398395,82.5546919 C78.4198405,82.6916661 78.3903995,82.8270945 78.3517271,82.9600092 C78.3179836,83.0993656 78.270768,83.2351102 78.2107471,83.3653266 C78.0931707,83.6310836 77.9453401,83.8823956 77.7701848,84.1142826 C77.673261,84.2376401 77.5763373,84.3521863 77.4706024,84.4667325 C77.3648674,84.5812787 77.2415099,84.6958249 77.1181525,84.8015599 C76.994443,84.9083697 76.8650205,85.008378 76.7304576,85.1011423 C76.5919455,85.2004669 76.4477861,85.2916698 76.2987065,85.3742909 C76.147765,85.4651758 75.9918559,85.5475429 75.8317104,85.6210058 C75.6689463,85.7020657 75.5011944,85.7726981 75.3294693,85.8324758 L74.8096058,86.0087007 L74.2544972,86.1496807 L73.6905774,86.2466044 L73.1178463,86.3082831 L72.536304,86.3082831 L71.9547617,86.3082831 L71.3820307,86.2466044 L70.8181109,86.1496807 L70.2630023,86.0087007 L69.7431387,85.8324758 C69.5714137,85.7726981 69.4036618,85.7020657 69.2408976,85.6210058 C69.0807521,85.5475429 68.924843,85.4651758 68.7739016,85.3742909 C68.6248219,85.2916698 68.4806626,85.2004669 68.3421505,85.1011423 C68.2075875,85.008378 68.0781651,84.9083697 67.9544556,84.8015599 C67.8306886,84.6967574 67.7130133,84.5849659 67.6020057,84.4667325 C67.4962707,84.3521863 67.399347,84.2376401 67.3024233,84.1142826 C67.2101659,83.9979067 67.1276487,83.8741309 67.0557084,83.7442102 C66.9841571,83.621586 66.9194424,83.4950983 66.861861,83.3653266 C66.80184,83.2351102 66.7546245,83.0993656 66.720881,82.9600092 C66.6780753,82.8281777 66.6485576,82.6923966 66.6327685,82.5546919 C66.624006,82.4197282 66.624006,82.2843382 66.6327685,82.1493745 C66.6240158,82.0114704 66.6240158,81.87315 66.6327685,81.7352459 C66.6746836,81.4593079 66.7516706,81.1898533 66.861861,80.9334224 C66.9193753,80.8007604 66.9840874,80.6713363 67.0557084,80.5457276 C67.1261966,80.4223701 67.2143108,80.2990126 67.3024233,80.1756552 C67.3905358,80.0522977 67.4962707,79.9377515 67.6020057,79.8320166 C67.7107261,79.7115317 67.8285573,79.5995921 67.9544556,79.4971892 C68.0781651,79.3903793 68.2075875,79.2903711 68.3421505,79.1976068 C68.4831304,79.1006831 68.6241104,79.0037593 68.7739016,78.9156469 C68.9249729,78.8276335 69.0808856,78.7482063 69.2408976,78.6777432 C69.4036618,78.5966833 69.5714137,78.526051 69.7431387,78.4662733 C69.9131678,78.3983242 70.0867025,78.3394989 70.2630023,78.2900483 L70.8181109,78.1490684 L71.3820307,78.0521447 C71.5670669,78.0521447 71.7609143,77.9992772 71.9547617,77.9904659 C72.1486092,77.9816547 72.3424566,77.9904659 72.536304,77.9904659 C72.7301515,77.9904659 72.9239989,77.9904659 73.1178463,77.9904659 C73.3116938,77.9904659 73.5055412,77.9904659 73.6905774,78.0521447 L74.2544972,78.1490684 L74.8096058,78.2900483 C74.9859055,78.3394989 75.1594402,78.3983242 75.3294693,78.4662733 C75.5011944,78.526051 75.6689463,78.5966833 75.8317104,78.6777432 C75.9917224,78.7482063 76.1476351,78.8276335 76.2987065,78.9156469 C76.4484977,79.0037593 76.5894777,79.1006831 76.7304576,79.1976068 C76.8650205,79.2903711 76.994443,79.3903793 77.1181525,79.4971892 C77.2420239,79.6018753 77.3597056,79.7136729 77.4706024,79.8320166 C77.5763373,79.9377515 77.673261,80.061109 77.7701848,80.1756552 C77.8671085,80.2902014 77.9375984,80.4223701 78.0168997,80.5457276 C78.0885207,80.6713363 78.1532327,80.8007604 78.2107471,80.9334224 C78.2694037,81.0611497 78.3165829,81.1938413 78.3517271,81.3299285 C78.388581,81.4632984 78.4179972,81.5986127 78.4398395,81.7352459 C78.4485923,81.87315 78.4485923,82.0114704 78.4398395,82.1493745" id="Path" fill="#3A3A3A"></path>
        <path d="M102.987974,58.7731362 C102.987974,60.8855274 102.145275,62.9106385 100.646634,64.399354 C99.1479941,65.8880695 97.1173282,66.7173411 95.0049839,66.7032585 L95.0049839,50.7989576 C97.1173282,50.784875 99.1479941,51.6141466 100.646634,53.1028621 C102.145275,54.5915777 102.987974,56.6166888 102.987974,58.72908" id="Path" fill="#3A3A3A"></path>
        <path d="M42.0317669,58.7731362 C42.0317669,60.8855274 42.8744658,62.9106385 44.3731061,64.399354 C45.8717464,65.8880695 47.9024124,66.7173411 50.0147567,66.7032585 L50.0147567,50.7989576 C47.9024124,50.784875 45.8717464,51.6141466 44.3731061,53.1028621 C42.8744658,54.5915777 42.0317669,56.6166888 42.0317669,58.72908" id="Path" fill="#3A3A3A"></path>
        <path d="M96.934647,53.2749181 L95.1723976,53.2749181 C95.1723973,40.7538837 85.0220934,30.60358 72.501059,30.60358 C59.9800247,30.60358 49.8297207,40.7538837 49.8297205,53.2749181 L48.0674711,53.2749181 C48.0674711,39.7854864 59.0028161,28.8501413 72.4922478,28.8501413 C85.9816795,28.8501413 96.9170245,39.7854864 96.9170245,53.2749181" id="Path" fill="#3A3A3A"></path>
        <path d="M72.5098703,86.4404518 L72.5098703,84.6782024 C85.1116175,84.6733397 95.3261373,74.4588198 95.3310001,61.8570726 L97.0932495,61.8570726 C97.0786805,75.4280588 86.0808565,86.4258828 72.5098703,86.4404518" id="Path" fill="#3A3A3A"></path>
        <path d="M74.7567383,144.938321 C79.0213818,135.994905 83.5679853,105.816384 83.5679853,105.816384 C83.5679853,105.816384 79.6469804,111.808032 72.4305691,111.808032 C65.2141578,111.808032 61.4958115,105.816384 61.4958115,105.816384 C61.4958115,105.816384 65.9895475,136.03015 70.3070585,144.938321 C71.038392,144.938321 71.7961593,144.938321 72.5627378,144.938321 C73.3293163,144.938321 73.9901598,144.938321 74.747927,144.938321" id="Path" fill="#FFFFFF"></path>
        <path d="M61.4341328,98.0184304 C59.9185983,98.2210891 55.2662599,98.7409526 53.8388379,99.0052901 L53.8388379,99.0052901 L56.1738183,115.165117 L60.9318917,114.081334 L57.4073929,118.381222 L69.3025764,144.911887 C70.1837011,144.911887 71.0648258,144.973566 71.8754605,144.973566 C69.68146,135.563154 62.5531612,104.820713 62.5267274,104.794279 L61.4341328,98.0184304 Z" id="Path" fill="#C7C8C9"></path>
        <path d="M87.6211589,118.381222 L84.0966601,114.081334 L88.8635447,115.165117 L91.1985252,99.040535 C89.7711032,98.7761976 85.092331,98.2210891 83.5767965,98.0184304 L82.4930132,104.794279 C82.4930132,104.794279 75.3294693,135.563154 73.1442801,144.973566 C74.0254048,144.973566 74.9065295,144.973566 75.7171642,144.911887 L87.6211589,118.381222 Z" id="Path" fill="#C7C8C9"></path>
      </g>
    </g>
  </g>
</svg>
